<svg width="240" height="240" viewBox="0 0 240 240" fill="none" xmlns="http://www.w3.org/2000/svg">
  <rect width="240" height="240" fill="#0a0a0a" rx="20"/>
  <defs>
    <linearGradient id="grad" x1="40" y1="40" x2="200" y2="200" gradientUnits="userSpaceOnUse">
      <stop offset="0%" stop-color="#E0F7FA"/>
      <stop offset="25%" stop-color="#4DD9CB"/>
      <stop offset="60%" stop-color="#2196F3"/>
      <stop offset="100%" stop-color="#0D47A1"/>
    </linearGradient>
    <filter id="glow">
      <feGaussianBlur stdDeviation="5" result="blur"/>
      <feMerge><feMergeNode in="blur"/><feMergeNode in="SourceGraphic"/></feMerge>
    </filter>
  </defs>
  <circle cx="120" cy="120" r="90" stroke="url(#grad)" stroke-width="3" fill="none"/>
  <ellipse cx="120" cy="120" rx="90" ry="30" stroke="#4DD9CB" stroke-width="2" fill="none" opacity="0.35" transform="rotate(-35 120 120)"/>
  <ellipse cx="120" cy="120" rx="90" ry="30" stroke="#2196F3" stroke-width="2" fill="none" opacity="0.35" transform="rotate(35 120 120)"/>
  <path d="M76 92H94V138C94 150 87 157 76 157C68 157 63 151 63 144" stroke="url(#grad)" stroke-width="7" stroke-linecap="round" fill="none" filter="url(#glow)"/>
  <path d="M106 92V152H130" stroke="url(#grad)" stroke-width="7" stroke-linecap="round" fill="none" filter="url(#glow)"/>
  <path d="M138 92H174M156 92V152" stroke="url(#grad)" stroke-width="7" stroke-linecap="round" fill="none" filter="url(#glow)"/>
  <circle cx="38" cy="84" r="7" fill="#4DD9CB" opacity="0.8" filter="url(#glow)"/>
  <circle cx="202" cy="84" r="7" fill="#2196F3" opacity="0.7" filter="url(#glow)"/>
  <circle cx="120" cy="214" r="7" fill="#0D47A1" opacity="0.5" filter="url(#glow)"/>
</svg>
