<svg width="200" height="200" viewBox="0 0 200 200" fill="none" xmlns="http://www.w3.org/2000/svg">
  <rect width="200" height="200" fill="#0a0a0a" rx="16"/>
  <defs>
    <linearGradient id="grad" x1="50" y1="40" x2="120" y2="150" gradientUnits="userSpaceOnUse">
      <stop offset="0%" stop-color="#E0E0E0"/>
      <stop offset="30%" stop-color="#4DD9CB"/>
      <stop offset="70%" stop-color="#2196F3"/>
      <stop offset="100%" stop-color="#0D47A1"/>
    </linearGradient>
    <filter id="glow">
      <feGaussianBlur stdDeviation="4" result="blur"/>
      <feMerge>
        <feMergeNode in="blur"/>
        <feMergeNode in="SourceGraphic"/>
      </feMerge>
    </filter>
  </defs>
  <circle cx="95" cy="90" r="50" fill="#4DD9CB" opacity="0.03"/>
  <rect x="92" y="40" width="22" height="4" rx="2" fill="url(#grad)"/>
  <rect x="104" y="40" width="6" height="76" rx="2" fill="url(#grad)"/>
  <path d="M110 116C110 134 98 146 80 146C69 146 60 140 55 132" stroke="url(#grad)" stroke-width="6" stroke-linecap="round" fill="none" filter="url(#glow)"/>
  <circle cx="55" cy="130" r="6" fill="url(#grad)" filter="url(#glow)"/>
  <rect x="120" y="38" width="28" height="28" rx="1" stroke="#4DD9CB" stroke-width="1" fill="none" opacity="0.2" transform="rotate(45 134 52)"/>
  <rect x="126" y="44" width="16" height="16" rx="1" stroke="#2196F3" stroke-width="1" fill="none" opacity="0.3" transform="rotate(45 134 52)"/>
  <circle cx="134" cy="52" r="3" fill="#4DD9CB" opacity="0.6"/>
  <circle cx="148" cy="36" r="1.5" fill="#2196F3" opacity="0.4"/>
  <circle cx="154" cy="60" r="1" fill="#0D47A1" opacity="0.3"/>
</svg>
